<svg xmlns="http://www.w3.org/2000/svg" width="20" height="19.992" viewBox="0 0 20 19.992">
  <g id="booking" transform="translate(-0.112 511.87)">
    <path id="Path_20324" data-name="Path 20324" d="M12.832-511.816c-.125.043-1.4,1.3-6.366,6.26C2.156-501.25.233-499.3.182-499.195a.832.832,0,0,0,0,.676,16.246,16.246,0,0,0,1.954,1.962.938.938,0,0,0,.875-.066,1.129,1.129,0,0,1,.61-.141,1.258,1.258,0,0,1,.981.4,1.258,1.258,0,0,1,.4.981,1.129,1.129,0,0,1-.141.61.968.968,0,0,0-.07.871,24.42,24.42,0,0,0,1.927,1.942.945.945,0,0,0,.617.055c.16-.039.426-.3,3.157-3.021A37.347,37.347,0,0,0,13.472-498a.285.285,0,0,0-.4-.27c-.047.023-1.387,1.344-2.978,2.931A38.053,38.053,0,0,1,7.1-492.454c-.07,0-.3-.211-.95-.852-.961-.957-.911-.864-.711-1.329a1.937,1.937,0,0,0-.453-2.181,1.952,1.952,0,0,0-2.212-.348,1.063,1.063,0,0,1-.3.1,11.922,11.922,0,0,1-1.782-1.8c0-.074,1.079-1.176,4.928-5.025l4.928-4.932.2.008c.172,0,.207-.012.277-.105a.18.18,0,0,0,.035-.234l-.047-.125,1.008-1.008c.758-.754,1.032-1,1.1-1s.309.215.95.848c.961.961.911.867.711,1.333a1.963,1.963,0,0,0,1.626,2.72,1.951,1.951,0,0,0,.942-.152c.465-.2.371-.25,1.333.711.633.641.848.879.848.95s-.25.344-1,1.1l-1.008,1.008-.125-.047a.18.18,0,0,0-.234.035c-.094.07-.109.106-.109.281v.2L15.4-500.652c-.907.91-1.669,1.692-1.692,1.739a.285.285,0,0,0,.27.4,36.8,36.8,0,0,0,3.056-2.962c2.075-2.075,2.978-3,3.021-3.1a.837.837,0,0,0-.016-.637,16.644,16.644,0,0,0-2-1.993.966.966,0,0,0-.809.074,1.362,1.362,0,0,1-.895.141,1.374,1.374,0,0,1-1.1-1.1,1.311,1.311,0,0,1,.137-.895.947.947,0,0,0,.059-.836,8.814,8.814,0,0,0-.985-1.063c-.75-.742-.942-.911-1.071-.946A.831.831,0,0,0,12.832-511.816Z" transform="translate(0 0)"/>
    <path id="Path_20325" data-name="Path 20325" d="M285.92-427.891a.284.284,0,0,0-.088.349,1.467,1.467,0,0,0,.605.555.307.307,0,0,0,.295-.283c0-.1-.046-.169-.283-.4C286.157-427.953,286.054-427.995,285.92-427.891Z" transform="translate(-274.517 -80.644)"/>
    <path id="Path_20326" data-name="Path 20326" d="M314.909-397.923c-.149.149-.1.291.184.582.211.207.287.26.379.26a.312.312,0,0,0,.3-.238c.019-.1-.011-.142-.257-.395s-.295-.287-.406-.287A.3.3,0,0,0,314.909-397.923Z" transform="translate(-302.403 -109.416)"/>
    <path id="Path_20327" data-name="Path 20327" d="M344.532-368.943a.279.279,0,0,0-.084.337,2.045,2.045,0,0,0,.5.509.274.274,0,0,0,.356-.073c.115-.161.073-.26-.222-.555S344.693-369.054,344.532-368.943Z" transform="translate(-330.841 -137.282)"/>
    <path id="Path_20328" data-name="Path 20328" d="M154.551-362.849a2.7,2.7,0,0,0-1.286.458.186.186,0,0,0,0,.272c.083.08.142.072.36-.044.3-.16.267-.166.616.088l.311.225v.732l-.4.29-.4.292-.3-.14-.3-.14-.122-.378-.119-.38.065-.078c.184-.22-.054-.487-.256-.29a2.472,2.472,0,0,0-.632,1.338,3.2,3.2,0,0,0,.285,1.8,2.753,2.753,0,0,0,2.412,1.4,2.633,2.633,0,0,0,2.41-1.426,2.629,2.629,0,0,0,.119-2.283,3.159,3.159,0,0,0-.989-1.216,3.2,3.2,0,0,0-.857-.417,3.655,3.655,0,0,0-.792-.114C154.66-362.859,154.6-362.851,154.551-362.849Zm.512.43a.762.762,0,0,1-.158.135l-.148.1-.148-.1a.762.762,0,0,1-.158-.135c-.008-.023.075-.031.305-.031S155.071-362.442,155.063-362.419Zm.7.189a2.365,2.365,0,0,1,.657.474l.179.179-.122.383-.119.38-.3.14-.3.14-.4-.292-.4-.29v-.732l.305-.22a2.633,2.633,0,0,1,.329-.223A.787.787,0,0,1,155.765-362.23Zm-3,1.475a1.087,1.087,0,0,1-.326.238,2.721,2.721,0,0,1,.163-.544l.041-.083.062.179A2.179,2.179,0,0,1,152.765-360.755Zm4.17-.254a2.285,2.285,0,0,1,.142.494,1.184,1.184,0,0,1-.326-.238,2.6,2.6,0,0,1,.122-.378A.539.539,0,0,1,156.935-361.008Zm-1.786.5c.311.228.36.272.344.318-.01.031-.075.233-.145.448l-.127.4h-.927l-.145-.445a2.652,2.652,0,0,1-.124-.463c.072-.07.7-.512.727-.515A3.2,3.2,0,0,1,155.149-360.506Zm-1.825.2.282.124.145.427c.2.6.2.523.008.756l-.168.2h-.82l-.119-.241a2.326,2.326,0,0,1-.238-.782l-.016-.158.305-.225c.171-.122.316-.223.324-.225S153.171-360.374,153.324-360.307Zm3.489.1.305.223-.016.16a2.326,2.326,0,0,1-.238.782l-.119.241h-.82l-.168-.2c-.2-.233-.2-.155.008-.756l.145-.427.272-.122c.15-.067.285-.124.3-.124A2.69,2.69,0,0,1,156.813-360.206Zm-1.359,1.447.166.2-.116.365-.114.368-.1.039a3.648,3.648,0,0,1-1.061,0l-.1-.039-.114-.368-.116-.365.166-.2.166-.194h1.061Zm-1.864.531a.671.671,0,0,1,.044.2,1.69,1.69,0,0,1-.44-.3l-.078-.08h.414Zm2.731-.1a1.69,1.69,0,0,1-.44.3.67.67,0,0,1,.044-.2l.06-.184h.414Z" transform="translate(-144.626 -141.796)"/>
    <path id="Path_20329" data-name="Path 20329" d="M374.165-339.719a.3.3,0,0,0-.165.291c0,.08.065.172.26.368.215.211.283.26.383.26a.269.269,0,0,0,.276-.28c0-.111-.042-.169-.283-.4C374.349-339.761,374.314-339.78,374.165-339.719Z" transform="translate(-359.263 -165.39)"/>
    <path id="Path_20330" data-name="Path 20330" d="M403.165-309.9c-.13.165-.1.264.142.521s.4.349.54.295a.4.4,0,0,0,.142-.1c.1-.134.061-.238-.222-.529-.23-.238-.295-.283-.4-.283A.24.24,0,0,0,403.165-309.9Z" transform="translate(-387.212 -193.974)"/>
    <path id="Path_20331" data-name="Path 20331" d="M87.077-240.923a.3.3,0,0,0-.077.2c0,.115.241.364,2.751,2.873s2.758,2.751,2.873,2.751a.267.267,0,0,0,.276-.28c0-.111-.238-.36-2.751-2.873S87.391-241,87.276-241A.3.3,0,0,0,87.077-240.923Z" transform="translate(-83.464 -260.195)"/>
    <path id="Path_20332" data-name="Path 20332" d="M67.077-220.923a.3.3,0,0,0-.077.2c0,.115.241.364,2.751,2.873s2.758,2.751,2.873,2.751a.267.267,0,0,0,.276-.28c0-.111-.238-.36-2.751-2.873S67.391-221,67.276-221A.3.3,0,0,0,67.077-220.923Z" transform="translate(-64.325 -279.334)"/>
  </g>
</svg>
