<svg xmlns="http://www.w3.org/2000/svg" width="20.746" height="17.652" viewBox="0 0 20.746 17.652">
  <g id="Commission" transform="translate(-6.139 -81.1)">
    <path id="Path_20323" data-name="Path 20323" d="M30.863,94.179c0-1.66-2.259-2.96-5.024-2.96-.184,0-.406.006-.584.017V86.392a1.839,1.839,0,0,0,.017-.375c0-1.637-2.1-2.917-4.865-2.917s-4.933,1.281-4.933,2.917a1.848,1.848,0,0,0,.042.375V87.72c-.157-.008-.315-.013-.474-.013-2.767,0-4.893,1.281-4.893,2.917a1.846,1.846,0,0,0,0,.375v6.783h.034c.087,1.545,2.185,2.744,4.857,2.744s4.9-1.2,4.992-2.744h.034V97.5c.159.008.178.023.341.023.184,0,.364-.008.544-.019v.08h.036l-.011.184c0,1.594,2.168,2.983,4.937,2.983s4.937-1.268,4.937-2.89l-.006-.184h.032V94.558a2.079,2.079,0,0,0-.015-.379Zm-4.952-2.02c2.435,0,4.13,1.065,4.13,2.02s-1.7,2.02-4.13,2.02-4.13-1.065-4.13-2.02,1.7-2.02,4.13-2.02Zm4.175,3.673v.51C29.853,97.365,28,98.22,25.911,98.22s-3.94-.855-4.175-1.876v-.512a6.4,6.4,0,0,0,4.175,1.3,6.378,6.378,0,0,0,4.175-1.3ZM20.4,91.714c-.161,0-.184-.006-.341-.017V91a1.684,1.684,0,0,0,.034-.231c.144.008.157.015.307.015a5.973,5.973,0,0,0,4.046-1.31v.394c-.229,1.006-1.984,1.848-4.046,1.848Zm4.114-.392c-.072.011-.144.021-.214.034.072-.057.148-.112.214-.174v.14ZM20.4,84.029c2.4,0,4,1.048,4,1.99s-1.6,1.99-4,1.99-4.069-1.048-4.069-1.99,1.67-1.99,4.069-1.99Zm-4.111,3.618c.074.066.159.127.243.191-.078-.015-.161-.025-.243-.036v-.155Zm-1.253.987c2.4,0,4.137,1.048,4.137,1.99s-1.738,1.99-4.137,1.99-4.069-1.048-4.069-1.99,1.67-1.99,4.069-1.99Zm-4.114,3.62a6.3,6.3,0,0,0,4.114,1.285,6.521,6.521,0,0,0,4.181-1.285v.5c-.229,1.008-2.119,1.85-4.181,1.85s-3.883-.843-4.114-1.848v-.506Zm0,1.825a6.177,6.177,0,0,0,4.114,1.308,6.364,6.364,0,0,0,4.181-1.31v.392c-.229,1.008-2.119,1.85-4.181,1.85s-3.883-.84-4.114-1.848v-.392Zm0,1.713A6.177,6.177,0,0,0,15.04,97.1a6.364,6.364,0,0,0,4.181-1.31v.392c-.229,1.008-2.119,1.85-4.181,1.85s-3.883-.84-4.114-1.848v-.392Zm4.114,3.955c-2.138,0-4.016-.908-4.128-1.965h.015V97.5a6.177,6.177,0,0,0,4.114,1.308,6.364,6.364,0,0,0,4.181-1.31v.277h.015c-.114,1.059-2.058,1.967-4.2,1.967Zm4.95-9.766A3.038,3.038,0,0,0,18.91,88.8a8.264,8.264,0,0,0,1.5.138,6.118,6.118,0,0,0,4.046-1.285v.5C24.224,89.161,22.466,90,20.407,90c-.188,0-.237-.011-.417-.023Zm.959,6.739c-.178.013-.36.023-.544.023-.161,0-.184-.006-.341-.017V95.9c.157.011.18.017.341.017.184,0,.364-.008.544-.023v.821Zm0-1.6c-.178.013-.36.023-.544.023-.161,0-.184-.006-.341-.017v-.932c.157.011.18.017.341.017s.339-.008.5-.019a1.784,1.784,0,0,0,.04.32v.608Zm.116-1.719c-.216.019-.436.03-.661.03-.161,0-.184-.006-.341-.017v-.932c.157.011.18.017.341.017a8.337,8.337,0,0,0,1.505-.14,2.668,2.668,0,0,0-.845,1.042Zm4.846,6.561c-2.225,0-4.177-.968-4.2-2.075l.006-.207h.013a6.258,6.258,0,0,0,4.181,1.336,6.245,6.245,0,0,0,4.179-1.336H30.1l.006.188c0,1.116-1.96,2.094-4.2,2.094ZM14.648,91.232a.589.589,0,0,1-.085-.256h-.586a.594.594,0,0,0,.364.593,1.979,1.979,0,0,0,.639.129V92h.21v-.3a1.675,1.675,0,0,0,.582-.125.576.576,0,0,0,.4-.555.488.488,0,0,0-.292-.447,3.357,3.357,0,0,0-.692-.22v-.576a.373.373,0,0,1,.3.119.4.4,0,0,1,.064.2h.572a.57.57,0,0,0-.379-.525,1.418,1.418,0,0,0-.553-.121v-.2h-.21v.2a2.264,2.264,0,0,0-.337.038.924.924,0,0,0-.343.148.6.6,0,0,0-.186.2.5.5,0,0,0-.066.256.472.472,0,0,0,.169.364,1.269,1.269,0,0,0,.586.235l.176.036v.646a.5.5,0,0,1-.332-.129Zm.544-.466a1.117,1.117,0,0,1,.256.091.23.23,0,0,1,.127.205.248.248,0,0,1-.135.241.743.743,0,0,1-.248.055v-.593Zm-.447-.534a.225.225,0,0,1-.138-.2.214.214,0,0,1,.091-.184.492.492,0,0,1,.279-.07v.531a.959.959,0,0,1-.233-.076Zm10.71,4.4a.579.579,0,0,1-.085-.256h-.586a.594.594,0,0,0,.364.593,1.979,1.979,0,0,0,.639.129v.3H26v-.3a1.676,1.676,0,0,0,.582-.125.577.577,0,0,0,.4-.555.49.49,0,0,0-.292-.447,3.357,3.357,0,0,0-.692-.22v-.576a.373.373,0,0,1,.3.119.4.4,0,0,1,.064.2h.572a.57.57,0,0,0-.379-.525A1.409,1.409,0,0,0,26,92.837v-.2h-.212v.2a2.263,2.263,0,0,0-.337.038.924.924,0,0,0-.343.148.6.6,0,0,0-.186.2.5.5,0,0,0-.066.256.467.467,0,0,0,.171.364,1.269,1.269,0,0,0,.584.235l.176.036v.646a.514.514,0,0,1-.332-.129ZM26,94.162a1.117,1.117,0,0,1,.256.091.23.23,0,0,1,.127.205.248.248,0,0,1-.135.241.743.743,0,0,1-.248.055v-.593Zm-.445-.534a.225.225,0,0,1-.138-.2.214.214,0,0,1,.091-.184.492.492,0,0,1,.279-.07V93.7a.96.96,0,0,1-.233-.076Zm-5.574-6.957a.579.579,0,0,1-.085-.256h-.586a.594.594,0,0,0,.364.593,1.97,1.97,0,0,0,.639.131v.3h.212v-.3a1.676,1.676,0,0,0,.582-.125.576.576,0,0,0,.4-.555.49.49,0,0,0-.292-.447,3.357,3.357,0,0,0-.692-.22v-.574a.373.373,0,0,1,.3.119.4.4,0,0,1,.064.2h.572a.57.57,0,0,0-.379-.525,1.409,1.409,0,0,0-.553-.121v-.205h-.212v.2a2.263,2.263,0,0,0-.337.038.939.939,0,0,0-.343.148.6.6,0,0,0-.186.2.5.5,0,0,0-.066.256.467.467,0,0,0,.171.364,1.269,1.269,0,0,0,.586.235l.176.036V86.8a.5.5,0,0,1-.334-.131Zm.544-.464a1.117,1.117,0,0,1,.256.091.23.23,0,0,1,.127.205.248.248,0,0,1-.135.241.743.743,0,0,1-.248.055v-.593Zm-.445-.534a.224.224,0,0,1-.138-.2.214.214,0,0,1,.091-.184.492.492,0,0,1,.279-.07v.531a1.142,1.142,0,0,1-.233-.076Z" transform="translate(-4 -2)"/>
  </g>
</svg>
