<svg id="logo" xmlns="http://www.w3.org/2000/svg" width="85.87" height="50.992" viewBox="0 0 85.87 50.992">
  <path id="Path_22947" data-name="Path 22947" d="M2.465-14.862a1.341,1.341,0,0,0,.733.921,2.565,2.565,0,0,0,1.372.395,1.47,1.47,0,0,0,1.24-.564.773.773,0,0,0,.169-.47,1.925,1.925,0,0,0-.207-.6,1.658,1.658,0,0,1-.188-.7q-.094-1.823-.15-3.6T5.378-23q0-1.691.056-3.139.47-.188.865-.357l.752-.319a4.722,4.722,0,0,1,1.034-.056.9.9,0,0,0,.883-.395,1.267,1.267,0,0,0,.15-.564A1.813,1.813,0,0,0,8.366-29.2a1.765,1.765,0,0,0-1.052-.545H7.276a.672.672,0,0,0-.291.113,2.879,2.879,0,0,0-.263.2l-.235.2a.7.7,0,0,1-.226.132,6.525,6.525,0,0,1-.883.338q-.771.263-2.236.7Q.454-27.247.4-27q-.019.094-.028.16A1,1,0,0,0,.36-26.7a1.018,1.018,0,0,0,.3.714,2.1,2.1,0,0,0,.263.254q.188.16.489.423a.873.873,0,0,0,.545.207,1.481,1.481,0,0,0,.545-.132,5,5,0,0,1,.526-.188q-.056,1.015-.056,2.706,0,1.41.028,3.035t.1,3.505a1,1,0,0,1-.357.677.916.916,0,0,0-.282.564Zm14.359.564a1.494,1.494,0,0,0,.771.188,1.139,1.139,0,0,0,1.222-.977q.019-.075.028-.132a.685.685,0,0,0,.009-.113,1.174,1.174,0,0,0-.282-.677,1.264,1.264,0,0,1-.319-.62,14.773,14.773,0,0,1-.226-1.6q-.094-.977-.188-2.33a11.54,11.54,0,0,0-.451-3.026,1.722,1.722,0,0,0-1.729-1.2A10,10,0,0,0,11.749-24a4.264,4.264,0,0,0-1.917,1.24,1.084,1.084,0,0,0-.15.545,1.269,1.269,0,0,0,.348.874,1.069,1.069,0,0,0,.818.385h.113a.957.957,0,0,0,.677-.413A3.587,3.587,0,0,1,12.275-22a4.078,4.078,0,0,1,2.124-.846,1.963,1.963,0,0,1,.658.113q.338.094.338.677a2.4,2.4,0,0,1-.075.62,6.588,6.588,0,0,1-.742.4q-.554.273-1.513.7a9.552,9.552,0,0,0-2.5,1.466A3.042,3.042,0,0,0,9.381-16.5a4.038,4.038,0,0,0,.15,1.034q.564,1.973,2.218,1.973a4.144,4.144,0,0,0,2.462-.958A4.784,4.784,0,0,0,15.846-16.4a10.611,10.611,0,0,0,.3,1.466A1.523,1.523,0,0,0,16.824-14.3Zm-3.984-3.834a3.825,3.825,0,0,1,.564-.46,6.491,6.491,0,0,1,.733-.423q.714-.357,1.062-.526l.348-.169A6.9,6.9,0,0,1,14.08-16.8a2.526,2.526,0,0,1-1.729,1.071A.659.659,0,0,1,11.815-16a.958.958,0,0,1-.216-.611,1.168,1.168,0,0,1,.47-.865A9.322,9.322,0,0,1,12.839-18.132Zm12.366-4.4q.451.094.451,3.27a13.349,13.349,0,0,1-.226,2.819.61.61,0,0,1-.066.254,2.31,2.31,0,0,1-.15.273,2.31,2.31,0,0,0-.15.273.61.61,0,0,0-.066.254,1.489,1.489,0,0,0,.094.413.976.976,0,0,0,1.034.6,2.051,2.051,0,0,0,.517-.066,1.776,1.776,0,0,0,.46-.188,1.267,1.267,0,0,0,.338-.282.56.56,0,0,0,.132-.366,4.053,4.053,0,0,0-.113-.6,12.229,12.229,0,0,0,.395-3.251,11.119,11.119,0,0,0-.62-3.966q-.658-1.691-1.71-1.691h-.094a3.693,3.693,0,0,0-3.157,2.556v-6.052a.424.424,0,0,1,.16-.3.526.526,0,0,0,.179-.263.489.489,0,0,0,.019-.15.7.7,0,0,0-.413-.6,1.949,1.949,0,0,0-1.09-.319q-.7,0-.883.395a.774.774,0,0,0-.113.338q0,.132.019.366t.019.348Q20.131-25.1,20.1-22.99t-.028,3.073q0,5.15.282,5.619.47.846,1.015.846.507,0,1.015-.733a.652.652,0,0,0,.132-.376,1.23,1.23,0,0,0-.15-.5,1.219,1.219,0,0,1-.15-.479.5.5,0,0,1,.056-.226,1.374,1.374,0,0,0-.009-.169,1.374,1.374,0,0,1-.009-.169,8.159,8.159,0,0,1,.545-2.706,12.159,12.159,0,0,1,1.316-2.65q.733-1.071,1.052-1.071ZM35.768-14.3a1.494,1.494,0,0,0,.771.188,1.139,1.139,0,0,0,1.222-.977q.019-.075.028-.132a.685.685,0,0,0,.009-.113,1.174,1.174,0,0,0-.282-.677,1.264,1.264,0,0,1-.319-.62,14.774,14.774,0,0,1-.226-1.6q-.094-.977-.188-2.33a11.54,11.54,0,0,0-.451-3.026,1.722,1.722,0,0,0-1.729-1.2A10,10,0,0,0,30.694-24a4.264,4.264,0,0,0-1.917,1.24,1.084,1.084,0,0,0-.15.545,1.269,1.269,0,0,0,.348.874,1.069,1.069,0,0,0,.818.385H29.9a.957.957,0,0,0,.677-.413A3.587,3.587,0,0,1,31.22-22a4.078,4.078,0,0,1,2.124-.846,1.962,1.962,0,0,1,.658.113q.338.094.338.677a2.4,2.4,0,0,1-.075.62,6.588,6.588,0,0,1-.742.4q-.554.273-1.513.7a9.552,9.552,0,0,0-2.5,1.466A3.042,3.042,0,0,0,28.325-16.5a4.038,4.038,0,0,0,.15,1.034q.564,1.973,2.218,1.973a4.144,4.144,0,0,0,2.462-.958A4.784,4.784,0,0,0,34.791-16.4a10.611,10.611,0,0,0,.3,1.466A1.523,1.523,0,0,0,35.768-14.3Zm-3.984-3.834a3.824,3.824,0,0,1,.564-.46,6.491,6.491,0,0,1,.733-.423q.714-.357,1.062-.526l.348-.169A6.9,6.9,0,0,1,33.024-16.8a2.526,2.526,0,0,1-1.729,1.071A.659.659,0,0,1,30.759-16a.958.958,0,0,1-.216-.611,1.168,1.168,0,0,1,.47-.865A9.322,9.322,0,0,1,31.784-18.132Zm11.464-5.413q-.827-1.24-1.579-1.24-1.372,0-2.312,1.785a7.776,7.776,0,0,0-.846,3.627,9.627,9.627,0,0,0,.545,3.514,2.4,2.4,0,0,0,2.274,1.785,2.5,2.5,0,0,0,2.03-1.24,2.462,2.462,0,0,1-.113.432,1.489,1.489,0,0,0-.094.413.476.476,0,0,0,.094.282,1.229,1.229,0,0,0,.977.3q1.165,0,1.391-.526a.7.7,0,0,0,.075-.319,1.113,1.113,0,0,0-.15-.479,1.132,1.132,0,0,1-.15-.5V-26.42a1.843,1.843,0,0,1,.122-.592,1.785,1.785,0,0,0,.122-.554A1.255,1.255,0,0,0,45.56-28q-.226-.677-1.165-.677a1.533,1.533,0,0,0-1.541.846,1.023,1.023,0,0,0-.094.376A1.755,1.755,0,0,0,43-26.74a1.783,1.783,0,0,1,.244.771Zm-1.353.9q.376,0,.771,1.24a6.8,6.8,0,0,1,.357,2.03,7.876,7.876,0,0,1-.338,2.274q-.376,1.222-.789,1.222-.921,0-.921-2.124v-.7q.019-.244.019-.413v-.263A10.263,10.263,0,0,1,41.2-21.5Q41.444-22.643,41.895-22.643Zm4.98-3.721q0,.451.639.7a3.026,3.026,0,0,0,1.034.207,1.276,1.276,0,0,0,.592-.122.527.527,0,0,0,.235-.517,3.6,3.6,0,0,0-.038-.846v.019a5.491,5.491,0,0,1,.169-.7,2.615,2.615,0,0,0,.113-.583.259.259,0,0,0-.056-.188,1.651,1.651,0,0,0-1.184-.338,1.863,1.863,0,0,0-1.071.226.607.607,0,0,0-.188.526v.113q0,.15.009.273t.009.216a1.153,1.153,0,0,1-.009.16.776.776,0,0,0-.009.1,1.329,1.329,0,0,1-.132.385A.932.932,0,0,0,46.875-26.364Zm2.462,12.4a.638.638,0,0,0,.3-.583,4.439,4.439,0,0,0-.207-.94,4.482,4.482,0,0,1-.207-1.071v-5.525a2.084,2.084,0,0,1,.282-.9,1.956,1.956,0,0,0,.3-.827.7.7,0,0,0-.15-.413,1.172,1.172,0,0,0-.639-.366A3.364,3.364,0,0,0,48-24.748a.983.983,0,0,0-.7.188,1.463,1.463,0,0,0-.451,1.071,2.293,2.293,0,0,0,.019.254q.019.16.038.348l.038.376q.019.188.019.319,0,.357-.009.9t-.028,1.316q-.019.752-.019,1.316v.9a9.211,9.211,0,0,0,.395,3.608,1.124,1.124,0,0,0,1.015.489A1.848,1.848,0,0,0,49.337-13.96Zm4.511,3.214a.927.927,0,0,0,1-.6,1.236,1.236,0,0,0,.038-.3q0-.094-.009-.207t-.009-.207a1.823,1.823,0,0,1,.038-.357,12.268,12.268,0,0,1,.329-1.7q.235-.893.611-1.908.846-2.1,1.447-3.6t1-2.453q.019-.038.132-.226t.319-.545a1.332,1.332,0,0,0,.207-.658.309.309,0,0,0-.009-.075.309.309,0,0,1-.009-.075,1.481,1.481,0,0,0-.62-.94,1.746,1.746,0,0,0-1.09-.413.824.824,0,0,0-.432.113.812.812,0,0,0-.395.639q-.15.771-.169.827L54.3-18.583l-1.24-3.909q-.019-.075-.056-.395t-.075-.9a1.252,1.252,0,0,0-.545-1,2.162,2.162,0,0,0-1.071-.226q-1.109,0-1.3.677-.019.075-.028.132a.81.81,0,0,0-.009.132,1.171,1.171,0,0,0,.188.583q.132.244.2.395t.1.226l2.706,7.781-.451,2.368a1.407,1.407,0,0,1-.188.385.807.807,0,0,0-.15.423.869.869,0,0,0,.075.357A1.311,1.311,0,0,0,53.848-10.746Zm12.7-3.552a1.494,1.494,0,0,0,.771.188,1.139,1.139,0,0,0,1.222-.977q.019-.075.028-.132a.685.685,0,0,0,.009-.113,1.174,1.174,0,0,0-.282-.677,1.264,1.264,0,0,1-.319-.62,14.775,14.775,0,0,1-.226-1.6q-.094-.977-.188-2.33a11.54,11.54,0,0,0-.451-3.026,1.722,1.722,0,0,0-1.729-1.2A10,10,0,0,0,61.478-24a4.264,4.264,0,0,0-1.917,1.24,1.084,1.084,0,0,0-.15.545,1.269,1.269,0,0,0,.348.874,1.069,1.069,0,0,0,.818.385h.113a.957.957,0,0,0,.677-.413A3.587,3.587,0,0,1,62-22a4.078,4.078,0,0,1,2.124-.846,1.962,1.962,0,0,1,.658.113q.338.094.338.677a2.4,2.4,0,0,1-.075.62,6.589,6.589,0,0,1-.742.4q-.554.273-1.513.7a9.552,9.552,0,0,0-2.5,1.466A3.042,3.042,0,0,0,59.11-16.5a4.038,4.038,0,0,0,.15,1.034q.564,1.973,2.218,1.973a4.144,4.144,0,0,0,2.462-.958A4.784,4.784,0,0,0,65.575-16.4a10.612,10.612,0,0,0,.3,1.466A1.523,1.523,0,0,0,66.552-14.3Zm-3.984-3.834a3.825,3.825,0,0,1,.564-.46,6.491,6.491,0,0,1,.733-.423q.714-.357,1.062-.526l.348-.169A6.9,6.9,0,0,1,63.809-16.8a2.526,2.526,0,0,1-1.729,1.071A.659.659,0,0,1,61.544-16a.958.958,0,0,1-.216-.611,1.168,1.168,0,0,1,.47-.865A9.322,9.322,0,0,1,62.568-18.132ZM76.588-14.3a1.494,1.494,0,0,0,.771.188,1.139,1.139,0,0,0,1.222-.977q.019-.075.028-.132a.685.685,0,0,0,.009-.113,1.174,1.174,0,0,0-.282-.677,1.264,1.264,0,0,1-.319-.62,14.772,14.772,0,0,1-.226-1.6q-.094-.977-.188-2.33a11.539,11.539,0,0,0-.451-3.026,1.722,1.722,0,0,0-1.729-1.2A10,10,0,0,0,71.514-24a4.264,4.264,0,0,0-1.917,1.24,1.084,1.084,0,0,0-.15.545,1.269,1.269,0,0,0,.348.874,1.069,1.069,0,0,0,.818.385h.113a.957.957,0,0,0,.677-.413A3.587,3.587,0,0,1,72.04-22a4.078,4.078,0,0,1,2.124-.846,1.963,1.963,0,0,1,.658.113q.338.094.338.677a2.4,2.4,0,0,1-.075.62,6.588,6.588,0,0,1-.742.4q-.554.273-1.513.7a9.552,9.552,0,0,0-2.5,1.466A3.042,3.042,0,0,0,69.146-16.5a4.038,4.038,0,0,0,.15,1.034q.564,1.973,2.218,1.973a4.144,4.144,0,0,0,2.462-.958A4.784,4.784,0,0,0,75.611-16.4a10.612,10.612,0,0,0,.3,1.466A1.523,1.523,0,0,0,76.588-14.3ZM72.6-18.132a3.824,3.824,0,0,1,.564-.46,6.492,6.492,0,0,1,.733-.423q.714-.357,1.062-.526l.348-.169A6.9,6.9,0,0,1,73.845-16.8a2.526,2.526,0,0,1-1.729,1.071A.659.659,0,0,1,71.58-16a.958.958,0,0,1-.216-.611,1.168,1.168,0,0,1,.47-.865A9.321,9.321,0,0,1,72.6-18.132Zm11.633,3.721a.262.262,0,0,0,.019-.113,1.539,1.539,0,0,0-.338-.789,1.9,1.9,0,0,1-.376-.921v-6.428l.7-.357a.663.663,0,0,1,.263-.056.806.806,0,0,1,.207.038q.132.038.273.085t.273.085a.806.806,0,0,0,.207.038.647.647,0,0,0,.554-.319,1.187,1.187,0,0,0,.216-.677,1.391,1.391,0,0,0-1.184-1.428,1.036,1.036,0,0,0-.207-.038.935.935,0,0,0-.545.263,2.92,2.92,0,0,1-.752.507v-.921a.444.444,0,0,1,.066-.226,2.351,2.351,0,0,1,.15-.226q.085-.113.16-.235a.449.449,0,0,0,.075-.235,1.419,1.419,0,0,0-.15-.489A1.4,1.4,0,0,0,82.49-27.6a1.473,1.473,0,0,0-1.316.752.593.593,0,0,0-.094.319,1.639,1.639,0,0,0,.1.46,1.671,1.671,0,0,1,.1.5v1.635q-.583.319-.977.517t-.6.291A4.362,4.362,0,0,1,79.05-23a.568.568,0,0,0-.507.338.736.736,0,0,0-.056.244q0,.47,1.334.921a1.532,1.532,0,0,0,.526.113.643.643,0,0,0,.273-.066,1.793,1.793,0,0,0,.263-.15q.122-.085.216-.16a.55.55,0,0,1,.15-.094q0,.3-.009,1.015T81.212-19q-.019.714-.019,1.3v1.635a8.074,8.074,0,0,0,.132,1.673,1.348,1.348,0,0,0,1.372.9,2.074,2.074,0,0,0,.987-.244A1,1,0,0,0,84.238-14.411Z" transform="translate(-0.36 61.738)" fill="#fff"/>
  <path id="Path_22946" data-name="Path 22946" d="M5.144-25.08a5,5,0,0,1-2.163-.48,3.529,3.529,0,0,1-1.33-1.131,3.211,3.211,0,0,1-.579-1.756,4.406,4.406,0,0,1,.38-1.937,3.408,3.408,0,0,1,.452-.8q.181-.2.38.145a1.61,1.61,0,0,0,.851.715,5.727,5.727,0,0,0,1.312.353,10.439,10.439,0,0,0,1.439.118q.724.009,1.213.009h7.4v-9.882H17.18a1.981,1.981,0,0,1,.805.163,2.041,2.041,0,0,1,.652.452,2.23,2.23,0,0,1,.443.661,1.981,1.981,0,0,1,.163.805v10.479a1.981,1.981,0,0,1-.163.805,2.23,2.23,0,0,1-.443.661,2.04,2.04,0,0,1-.652.452,1.981,1.981,0,0,1-.805.163ZM10.32-42.473a2.356,2.356,0,0,1,.959.2,2.559,2.559,0,0,1,.787.534,2.53,2.53,0,0,1,.534.8,2.419,2.419,0,0,1,.2.968,2.293,2.293,0,0,1-.2.95,2.591,2.591,0,0,1-.534.778,2.433,2.433,0,0,1-.787.525,2.452,2.452,0,0,1-.959.19,2.452,2.452,0,0,1-.959-.19,2.433,2.433,0,0,1-.787-.525,2.46,2.46,0,0,1-.525-.778,2.386,2.386,0,0,1-.19-.95,2.519,2.519,0,0,1,.19-.968,2.41,2.41,0,0,1,.525-.8,2.559,2.559,0,0,1,.787-.534A2.356,2.356,0,0,1,10.32-42.473Zm-5.574,0a2.356,2.356,0,0,1,.959.2,2.559,2.559,0,0,1,.787.534,2.53,2.53,0,0,1,.534.8,2.419,2.419,0,0,1,.2.968,2.293,2.293,0,0,1-.2.95,2.59,2.59,0,0,1-.534.778,2.433,2.433,0,0,1-.787.525,2.452,2.452,0,0,1-.959.19,2.452,2.452,0,0,1-.959-.19A2.433,2.433,0,0,1,3-38.247a2.46,2.46,0,0,1-.525-.778,2.386,2.386,0,0,1-.19-.95,2.519,2.519,0,0,1,.19-.968A2.409,2.409,0,0,1,3-41.74a2.559,2.559,0,0,1,.787-.534A2.356,2.356,0,0,1,4.746-42.473Zm21.447-4.253V-29.84H27.84v4.76H23.514a2.045,2.045,0,0,1-.814-.163,2.014,2.014,0,0,1-.661-.452,2.23,2.23,0,0,1-.443-.661,1.981,1.981,0,0,1-.163-.805V-44.627a2.045,2.045,0,0,1,.163-.814,2.086,2.086,0,0,1,.443-.661,2.216,2.216,0,0,1,.661-.452,1.953,1.953,0,0,1,.814-.172ZM27.46-29.84h6.353v-9.882h2.66a1.981,1.981,0,0,1,.805.163,2.148,2.148,0,0,1,.661.452,2.148,2.148,0,0,1,.452.661,1.981,1.981,0,0,1,.163.805v10.479a1.981,1.981,0,0,1-.163.805,2.148,2.148,0,0,1-.452.661,2.148,2.148,0,0,1-.661.452,1.981,1.981,0,0,1-.805.163H27.46Zm3.24,7.022a2.293,2.293,0,0,1,.95.2,2.59,2.59,0,0,1,.778.534,2.559,2.559,0,0,1,.534.787,2.356,2.356,0,0,1,.2.959,2.356,2.356,0,0,1-.2.959,2.558,2.558,0,0,1-.534.787,2.46,2.46,0,0,1-.778.525,2.386,2.386,0,0,1-.95.19,2.452,2.452,0,0,1-.959-.19,2.433,2.433,0,0,1-.787-.525,2.433,2.433,0,0,1-.525-.787,2.452,2.452,0,0,1-.19-.959,2.452,2.452,0,0,1,.19-.959,2.433,2.433,0,0,1,.525-.787,2.558,2.558,0,0,1,.787-.534A2.356,2.356,0,0,1,30.7-22.818Zm5.556,0a2.356,2.356,0,0,1,.959.2,2.559,2.559,0,0,1,.787.534,2.559,2.559,0,0,1,.534.787,2.356,2.356,0,0,1,.2.959,2.356,2.356,0,0,1-.2.959,2.559,2.559,0,0,1-.534.787,2.433,2.433,0,0,1-.787.525,2.452,2.452,0,0,1-.959.19,2.386,2.386,0,0,1-.95-.19,2.46,2.46,0,0,1-.778-.525A2.433,2.433,0,0,1,34-19.379a2.452,2.452,0,0,1-.19-.959A2.452,2.452,0,0,1,34-21.3a2.433,2.433,0,0,1,.525-.787,2.59,2.59,0,0,1,.778-.534A2.293,2.293,0,0,1,36.256-22.818ZM56.363-29.84v4.76H42.7a2,2,0,0,1-.8-.163,2.118,2.118,0,0,1-.67-.452,2.148,2.148,0,0,1-.452-.661,1.981,1.981,0,0,1-.163-.805V-29.84h9.266v-5.1H47.278a6.569,6.569,0,0,1-2.443-.489,6.76,6.76,0,0,1-1.81-1.122A6.229,6.229,0,0,1,41.848-37.9a6.228,6.228,0,0,1-.652-1.3,2.309,2.309,0,0,1-.163-.923q.036-.335.308-.208a5.83,5.83,0,0,0,1.556.416,18.491,18.491,0,0,0,1.873.163q.968.036,1.909.027t1.647.009h4.235a1.981,1.981,0,0,1,.805.163,2.148,2.148,0,0,1,.661.452,2.148,2.148,0,0,1,.452.661,1.981,1.981,0,0,1,.163.805v7.8Zm16.723,0v4.76H56.074v-4.76H66.679a4.634,4.634,0,0,0-.416-1.846,3.683,3.683,0,0,0-.923-1.195,4.78,4.78,0,0,0-1.267-.76q-.706-.29-1.457-.525t-1.511-.48a6.273,6.273,0,0,1-1.412-.652,4.925,4.925,0,0,1-1.167-1.023,4.007,4.007,0,0,1-.769-1.575,3.736,3.736,0,0,1-.136-1.032,2.972,2.972,0,0,1,.118-.833,1.056,1.056,0,0,1,.29-.5.288.288,0,0,1,.362-.045,7.471,7.471,0,0,0,1.828.878,17.776,17.776,0,0,0,1.891.489q.95.19,1.891.353a11.888,11.888,0,0,1,1.837.471,7.79,7.79,0,0,1,1.728.851,6.2,6.2,0,0,1,1.547,1.493,10.97,10.97,0,0,1,1.312,2.389,19.817,19.817,0,0,1,1.032,3.538Zm-.326,0H78.9v-9.882h2.679a1.981,1.981,0,0,1,.805.163,2.04,2.04,0,0,1,.652.452,2.23,2.23,0,0,1,.443.661,1.981,1.981,0,0,1,.163.805v10.479a1.981,1.981,0,0,1-.163.805,2.23,2.23,0,0,1-.443.661,2.04,2.04,0,0,1-.652.452,1.981,1.981,0,0,1-.805.163H72.761Zm8.76-17.031a2.452,2.452,0,0,1,.959.19,2.433,2.433,0,0,1,.787.525,2.558,2.558,0,0,1,.534.787,2.356,2.356,0,0,1,.2.959,2.356,2.356,0,0,1-.2.959,2.559,2.559,0,0,1-.534.787,2.559,2.559,0,0,1-.787.534,2.356,2.356,0,0,1-.959.2,2.293,2.293,0,0,1-.95-.2,2.591,2.591,0,0,1-.778-.534,2.433,2.433,0,0,1-.525-.787,2.452,2.452,0,0,1-.19-.959,2.452,2.452,0,0,1,.19-.959,2.433,2.433,0,0,1,.525-.787,2.46,2.46,0,0,1,.778-.525A2.386,2.386,0,0,1,81.52-46.871Zm-5.574,0a2.452,2.452,0,0,1,.959.19,2.433,2.433,0,0,1,.787.525,2.433,2.433,0,0,1,.525.787,2.452,2.452,0,0,1,.19.959,2.452,2.452,0,0,1-.19.959,2.433,2.433,0,0,1-.525.787,2.558,2.558,0,0,1-.787.534,2.355,2.355,0,0,1-.959.2,2.293,2.293,0,0,1-.95-.2,2.59,2.59,0,0,1-.778-.534,2.558,2.558,0,0,1-.534-.787,2.356,2.356,0,0,1-.2-.959,2.356,2.356,0,0,1,.2-.959,2.558,2.558,0,0,1,.534-.787A2.46,2.46,0,0,1,75-46.681,2.386,2.386,0,0,1,75.946-46.871Z" transform="translate(0.345 46.871)" fill="#fff"/>
</svg>
